<?xml version="1.0" standalone="no"?>
<!DOCTYPE svg PUBLIC "-//W3C//DTD SVG 20010904//EN"
 "http://www.w3.org/TR/2001/REC-SVG-20010904/DTD/svg10.dtd">
<svg version="1.0" xmlns="http://www.w3.org/2000/svg"
 width="96.000000pt" height="96.000000pt" viewBox="0 0 96.000000 96.000000"
 preserveAspectRatio="xMidYMid meet">
<metadata>
Created by potrace 1.11, written by Peter Selinger 2001-2013
</metadata>
<g transform="translate(0.000000,96.000000) scale(0.100000,-0.100000)"
fill="#000000" stroke="none">
<path d="M0 809 l0 -150 57 46 c130 106 261 150 423 143 163 -8 275 -59 413
-188 l67 -62 0 181 0 181 -480 0 -480 0 0 -151z"/>
<path d="M325 742 c-111 -34 -215 -102 -294 -193 l-31 -37 0 -256 0 -256 105
0 105 0 -44 55 c-59 71 -86 158 -86 270 0 48 7 103 16 132 35 109 137 216 239
250 74 25 187 22 253 -7 71 -31 137 -105 159 -179 15 -51 15 -61 0 -116 -8
-33 -13 -62 -11 -64 5 -6 164 158 164 170 0 17 -111 123 -171 163 -86 57 -151
78 -254 82 -67 3 -105 -1 -150 -14z"/>
<path d="M345 607 c-66 -31 -112 -79 -144 -147 -34 -74 -36 -201 -4 -271 26
-58 84 -124 142 -161 l45 -28 288 0 288 0 0 211 0 211 -71 -67 c-102 -95 -193
-138 -310 -143 -77 -4 -93 -1 -142 21 -75 34 -110 82 -115 156 -6 89 26 138
109 161 70 20 149 -28 149 -91 0 -27 -3 -29 -40 -29 -27 0 -47 7 -60 20 -39
39 -83 -14 -61 -73 23 -61 116 -85 179 -47 89 54 78 202 -19 267 -60 40 -162
44 -234 10z"/>
</g>
</svg>
