<svg xmlns="http://www.w3.org/2000/svg" width="100" height="100" viewBox="0 0 100 100">
    <g fill="#E2821C" fill-rule="evenodd">
        <path d="M66.316 58.459a1 1 0 0 1 1.413-.063l20.163 18.438c.557-.806.886-1.78.886-2.834V34a4.963 4.963 0 0 0-.894-2.844L63.09 53.589c.004.138.02.272.02.411 0 7.291-5.931 13.223-13.222 13.223-7.291 0-13.222-5.932-13.222-13.223 0-.139.016-.273.02-.411L11.894 31.156A4.97 4.97 0 0 0 11 34v40c0 1.054.329 2.028.885 2.834l20.163-18.438a1 1 0 1 1 1.35 1.476L13.337 78.218A4.96 4.96 0 0 0 16 79h67.777c.982 0 1.89-.293 2.663-.782L66.379 59.872a1.001 1.001 0 0 1-.063-1.413"/>
        <path d="M49.889 40.777c6.314 0 11.603 4.453 12.907 10.382L86.43 29.776A4.957 4.957 0 0 0 83.778 29H16c-.977 0-1.882.291-2.652.776L36.982 51.16c1.304-5.929 6.593-10.382 12.907-10.382"/>
        <path d="M52.004 49.698c2.008 1.112 3.605 2.7 5.096 4.416.157.181.078.305-.034.433-.742.85-1.446 1.736-2.246 2.527-.618.613-1.355 1.104-2.04 1.65a4.966 4.966 0 0 0-.075-.087c.004-.02.001-.046.012-.064 1.25-2.065 1.157-4.154-.08-6.146-1.44-2.31-3.682-3.362-6.322-3.386-3.292-.03-5.8 1.41-7.597 3.934-.03.338-.052.68-.052 1.025 0 1.3.234 2.543.642 3.705.077-.5.182-1.01.347-1.536 1.064-3.384 4.45-5.394 7.803-4.728 2.504.497 4.057 2.567 3.752 5-.299 2.376-2.784 3.62-4.85 2.413-.86-.502-1.349-1.235-1.219-2.27.031-.25.138-.509.273-.725.246-.39.646-.512 1.091-.39.413.114.605.378.64.878h2.086c.255-.885-.11-1.9-.903-2.494-1.244-.933-3.166-.785-4.403.341-1.364 1.242-1.575 3.6-.429 5.2 1.153 1.61 2.793 2.32 4.715 2.405 2.326.102 4.462-.557 6.42-1.79 2.164-1.368 3.792-3.26 5.177-5.387.161-.247.162-.42-.005-.665a20.396 20.396 0 0 0-5.709-5.625c-2.738-1.79-5.76-2.602-9.029-2.41-1.283.074-2.507.362-3.69.787a11.204 11.204 0 0 0-2.053 3.545 13.096 13.096 0 0 1 3.458-1.585c3.223-.927 6.293-.595 9.224 1.03"/>
    </g>
</svg>
