<?xml version="1.0" encoding="UTF-8"?>
<svg width="20px" height="20px" viewBox="0 0 20 20" version="1.1" xmlns="http://www.w3.org/2000/svg" xmlns:xlink="http://www.w3.org/1999/xlink">
    <!-- Generator: sketchtool 50.2 (55047) - http://www.bohemiancoding.com/sketch -->
    <title>52CA1B41-93F8-4AEE-8FB7-8566D77152E7</title>
    <desc>Created with sketchtool.</desc>
    <defs></defs>
    <g id="Symbols" stroke="none" stroke-width="1" fill="none" fill-rule="evenodd">
        <g id="Icon/Hand">
            <path d="M4.49564085,17.5214275 C5.04911305,17.5214275 5.5,17.0716116 5.5,16.5202275 L5.5,7.52262754 C5.5,6.97160548 5.04887469,6.52142754 4.49564085,6.52142754 L1.50375789,6.52142754 C0.950700056,6.52142754 0.5,6.9714294 0.5,7.52262754 L0.5,16.5202275 C0.5,17.0717876 0.950461792,17.5214275 1.50375789,17.5214275 L4.49564085,17.5214275 Z" id="Fill-1" stroke="#182234"></path>
            <path d="M3.5,15.0214275 C3.776,15.0214275 4,15.2449275 4,15.5214275 C4,15.7979275 3.776,16.0214275 3.5,16.0214275 C3.224,16.0214275 3,15.7979275 3,15.5214275 C3,15.2449275 3.224,15.0214275 3.5,15.0214275" id="Fill-6" fill="#182234"></path>
            <path d="M5.49904123,7.5 L5.49904123,15.690983 L9.11707522,17.5 C12.7644189,17.5 12.7982223,17.5 15.9990412,17.5 C18.1299688,17.5 19.5293154,13.5443946 19.4990621,9.99542708 C19.5147065,8.2849504 18.958302,7.5 17.9990412,7.5 C16.5211181,7.5 16.5211181,7.5 13.9990412,7.5 L13.303971,7.5 L13.5249935,6.84100707 C14.9955113,2.45656305 14.7160023,0.5 12.9990412,0.5 C11.9407579,0.5 11.56623,0.875082025 11.0628341,2.19729585 C11.0143649,2.32460452 10.8425519,2.78902058 10.8243021,2.83774734 C10.7218827,3.11120563 10.6360157,3.32977627 10.5439204,3.54699018 C10.3030053,4.11520705 10.0431101,4.61178255 9.72226646,5.0876386 C9.1178579,5.98406106 8.32422106,6.75727754 7.26521995,7.42325984 L7.14319281,7.5 L5.49904123,7.5 Z" id="Path-6" stroke="#182234"></path>
        </g>
    </g>
</svg>