<svg xmlns="http://www.w3.org/2000/svg" width="20" height="20" viewBox="0 0 20 20">
    <path fill="#FFF" fill-rule="nonzero" d="M19.894 14.21a1.353 1.353 0 0 0-.068-.13c-.347-.619-1.01-1.379-1.989-2.28l-.02-.02-.01-.01-.011-.011h-.01c-.445-.42-.726-.702-.844-.846-.216-.275-.264-.554-.146-.836.083-.213.396-.663.937-1.351.285-.365.51-.657.677-.877 1.2-1.582 1.722-2.592 1.562-3.033l-.062-.103c-.042-.061-.15-.118-.323-.17-.174-.051-.396-.06-.666-.026l-3 .021a.393.393 0 0 0-.208.005l-.135.031-.052.026-.042.031a.461.461 0 0 0-.114.108.706.706 0 0 0-.104.18 16.775 16.775 0 0 1-1.115 2.322c-.256.426-.492.796-.708 1.109a5.343 5.343 0 0 1-.541.69 3.765 3.765 0 0 1-.396.357c-.118.09-.208.127-.27.113a7.691 7.691 0 0 1-.178-.041.688.688 0 0 1-.234-.253 1.124 1.124 0 0 1-.12-.402c-.02-.162-.033-.3-.036-.418a8.647 8.647 0 0 1 .005-.495c.007-.213.01-.358.01-.433 0-.262.006-.545.016-.851l.026-.728a14.4 14.4 0 0 0 .01-.567c0-.2-.012-.356-.036-.47a1.595 1.595 0 0 0-.109-.33.557.557 0 0 0-.213-.247 1.21 1.21 0 0 0-.35-.14c-.367-.082-.836-.127-1.405-.134-1.291-.013-2.121.07-2.489.248a1.4 1.4 0 0 0-.396.31c-.125.15-.142.233-.052.247.417.062.712.21.885.444l.063.123c.049.09.097.248.146.475.048.227.08.478.093.753.035.502.035.932 0 1.29-.034.357-.067.636-.099.835a1.661 1.661 0 0 1-.265.712.178.178 0 0 1-.052.051.787.787 0 0 1-.281.052c-.098 0-.216-.048-.354-.144a2.49 2.49 0 0 1-.432-.398 5.31 5.31 0 0 1-.506-.706c-.187-.303-.381-.66-.583-1.073l-.166-.3a25.64 25.64 0 0 1-.427-.84c-.18-.368-.34-.724-.48-1.068a.68.68 0 0 0-.249-.33l-.052-.031a.715.715 0 0 0-.167-.088 1.113 1.113 0 0 0-.24-.067l-2.852.02c-.292 0-.49.066-.594.197l-.042.062A.331.331 0 0 0 0 4.94c0 .076.02.168.063.278.416.97.869 1.905 1.358 2.806.49.901.915 1.627 1.276 2.177A25.7 25.7 0 0 0 3.8 11.759c.375.488.623.8.744.938.122.138.217.241.287.31l.26.247c.167.165.411.363.734.593.323.231.68.458 1.073.682a5.85 5.85 0 0 0 1.37.546c.52.141 1.026.198 1.52.17h1.197c.243-.02.427-.096.552-.227l.041-.051a.68.68 0 0 0 .078-.19c.025-.087.037-.182.037-.285a3.368 3.368 0 0 1 .067-.799c.052-.237.111-.416.178-.536a1.32 1.32 0 0 1 .4-.454.683.683 0 0 1 .084-.036c.166-.055.362-.002.588.16.226.161.438.361.635.598.198.238.436.504.714.8.278.295.52.515.729.66l.208.124c.139.082.32.158.542.227.221.068.416.086.582.051l2.666-.041c.264 0 .469-.043.615-.13.145-.085.232-.18.26-.283a.792.792 0 0 0 .005-.35 1.285 1.285 0 0 0-.073-.274z"/>
</svg>
