<?xml version="1.0" encoding="UTF-8"?>
<svg width="20px" height="20px" viewBox="0 0 20 20" version="1.1" xmlns="http://www.w3.org/2000/svg" xmlns:xlink="http://www.w3.org/1999/xlink">
    <!-- Generator: sketchtool 50.2 (55047) - http://www.bohemiancoding.com/sketch -->
    <title>0A9F1859-C560-40D7-A556-29D2E1E822A0</title>
    <desc>Created with sketchtool.</desc>
    <defs></defs>
    <g id="Symbols" stroke="none" stroke-width="1" fill="none" fill-rule="evenodd">
        <g id="Icon/Hand-2" fill="#FFFFFF">
            <path d="M4.49564085,18.0214275 L1.50375789,18.0214275 C0.674616695,18.0214275 0,17.3482275 0,16.5202275 L0,7.52262754 C0,6.69522754 0.674616695,6.02142754 1.50375789,6.02142754 L4.49564085,6.02142754 C5.32478204,6.02142754 6,6.69522754 6,7.52262754 L6,16.5202275 C6,17.3482275 5.32478204,18.0214275 4.49564085,18.0214275 Z M3.5,15.0214275 C3.224,15.0214275 3,15.2449275 3,15.5214275 C3,15.7979275 3.224,16.0214275 3.5,16.0214275 C3.776,16.0214275 4,15.7979275 4,15.5214275 C4,15.2449275 3.776,15.0214275 3.5,15.0214275 Z" id="Combined-Shape"></path>
            <path d="M6.93212549,16.9665421 C6.97622723,16.8255038 7,16.6755908 7,16.5202275 L7,7.52262754 C7,7.33895198 6.96672518,7.16284585 6.90587838,7 L6.99904123,7 C11.526983,4.15247793 9.99904123,4.40863411e-16 12.9990412,0 C14.9990412,0 14.9990412,2.33333333 12.9990412,7 C15.5211181,7 17.1877848,7 17.9990412,7 C19.2159259,7 20.0177662,7.9527096 19.9990412,10 C20.0177662,12.1909339 19.1326303,18 15.9990412,18 C13.9307248,18 11.5973914,18 8.99904123,18 L6.93212549,16.9665421 Z" id="Combined-Shape"></path>
        </g>
    </g>
</svg>