<svg xmlns="http://www.w3.org/2000/svg" width="100" height="100" viewBox="0 0 100 100">
    <g fill="#E2821C" fill-rule="evenodd">
        <path d="M55.411 42.712a9.01 9.01 0 0 1-6.408 2.66h-.008a9.01 9.01 0 0 1-6.405-2.65 1.001 1.001 0 0 1 1.414-1.416 7.07 7.07 0 0 0 9.991-.008 1.001 1.001 0 0 1 1.416 1.414M51.501 68.5c0-5.981 3.112-11.241 7.795-14.271-2.19-1.101-2.41-1.934-2.41-2.644v-2.696c4.29-4.052 7.386-11.171 7.386-17.027C64.272 23.116 57.422 16 49 16c-8.42 0-15.273 7.116-15.273 15.862 0 5.856 3.097 12.975 7.387 17.027v2.696c0 .859-.314 1.898-4.07 3.376-.808.317-2.053.773-3.512 1.309-6.492 2.379-12.43 4.623-13.774 5.932C16.754 65.13 16 77.484 16 77.602c0 .62.264 1.437 1.523 1.806C20.763 80.313 33.32 82 49 82c3.132 0 6.131-.07 8.964-.184-3.93-3.117-6.463-7.922-6.463-13.316"/>
        <path d="M61 67.5h6.5V61a1 1 0 1 1 2 0v6.5H76a1 1 0 1 1 0 2h-6.5V76a1 1 0 1 1-2 0v-6.5H61a1 1 0 1 1 0-2m7.5 16c8.287 0 15-6.713 15-15 0-8.287-6.713-15-15-15-8.287 0-15 6.713-15 15 0 8.287 6.713 15 15 15"/>
    </g>
</svg>
