<svg xmlns="http://www.w3.org/2000/svg" width="100" height="100" viewBox="0 0 100 100">
    <g fill="#E2821C" fill-rule="evenodd">
        <path d="M44.44 34.334l.528 1.102 9.111 9.925 1.734.029 1.07-2.877-11.94-8.366zM53.951 34.08l-2.703.531 4.285 3.602.408-2.474zM45.08 41.45l-1.1 2.997 1.835 1.636 2.804-1.053-1.317-2.493z"/>
        <path d="M42.242 34.875l.303-3.433a.249.249 0 0 1 .247-.227l15.696-.123c.155-.026.25.109.252.248l.15 16.367a.246.246 0 0 1-.075.181.218.218 0 0 1-.183.071l-10.112-.372-5.499.371-.016.001a.25.25 0 0 1-.189-.086l-.512-.589a.241.241 0 0 1-.062-.164V34.875zM23.41 54.893h54.313V24.158H23.41v30.735z"/>
        <path d="M41.259 76.355l.974-3.002a.499.499 0 0 1 .475-.345h15.584a.5.5 0 0 1 .476.345l.973 3.002a.498.498 0 0 1-.475.653H41.735a.498.498 0 0 1-.476-.653m38.464-53.198v32.736a1 1 0 0 1-1 1H22.41a1 1 0 0 1-1-1V23.157a1 1 0 0 1 1-1h56.313a1 1 0 0 1 1 1m14.133 56.326l-10.18-16.838-18.3.036h-.001a1 1 0 0 1-.002-2l17.47-.034V20a1 1 0 0 0-1-1H19.157a1 1 0 0 0-1 1v40.657l17.467-.035h.002a1 1 0 0 1 .002 2l-18.312.036-10.17 16.823A1.002 1.002 0 0 0 8 81h85a1 1 0 0 0 .856-1.518"/>
    </g>
</svg>
