<svg xmlns="http://www.w3.org/2000/svg" width="100" height="100" viewBox="0 0 100 100">
    <g fill="#E2821C" fill-rule="evenodd">
        <path d="M49.915 35.394a1 1 0 0 0 1-1V21a1 1 0 1 0-2 0v13.394a1 1 0 0 0 1 1M26.231 39.546a.997.997 0 0 0 1.398.213 1 1 0 0 0 .213-1.4l-5.58-7.58a1 1 0 1 0-1.61 1.187l5.58 7.58zM71.766 40.98a.997.997 0 0 0 .794-.39l6.607-8.608a1 1 0 1 0-1.586-1.218l-6.607 8.608a1 1 0 0 0 .792 1.608M51 49.98a1 1 0 0 1-1 1c-4.963 0-9 4.038-9 9a1 1 0 1 1-2 0c0-6.064 4.935-11 11-11a1 1 0 0 1 1 1m-12.045-1.107a15.392 15.392 0 0 0-4.539 10.96c0 8.546 6.953 15.5 15.5 15.5 8.546 0 15.5-6.954 15.5-15.5-.001-8.547-6.954-15.5-15.501-15.5-4.14 0-8.032 1.612-10.96 4.54"/>
        <path d="M67.416 59.832c0 9.665-7.836 17.5-17.5 17.5-9.666 0-17.5-7.835-17.5-17.5-.001-9.665 7.834-17.5 17.499-17.5s17.5 7.835 17.501 17.5m20.508-.116C87.798 59.513 74.983 39.48 50 39.48c-24.982 0-37.798 20.033-37.924 20.236a.5.5 0 0 0 0 .53C12.202 60.447 25.018 80.48 50 80.48c24.983 0 37.798-20.032 37.924-20.235a.5.5 0 0 0 0-.529"/>
    </g>
</svg>
