<svg xmlns="http://www.w3.org/2000/svg" width="100" height="100" viewBox="0 0 100 100">
    <g fill="#E2821C" fill-rule="evenodd">
        <path d="M81.618 51.348H70.63l-5.95 6.317 4.878 5.234H80.15c.106 0 .203.03.3.06l3.523-4.988a.534.534 0 0 0 .06-.508l-2.416-6.115zM36.596 41.689L18.67 38.794a.531.531 0 0 0-.589.343c-5.28 14.08-3.535 36.65 3.393 43.907a.537.537 0 0 0 .6.124l15.896-6.795c-5.082-9.447-5.71-22.322-1.375-34.684M69.624 65.052l-4.026 5.284 3.764 5.73h7.477a.542.542 0 0 0 .427-.21l4.042-5.237a.538.538 0 0 0 .092-.477l-1.457-5.09h-10.32zM66.71 43.955l3.99 5.238h11.005l2.318-5.01a.54.54 0 0 0-.029-.508l-3.21-5.237a.54.54 0 0 0-.458-.257h-9.225l-4.391 5.774z"/>
        <path d="M63.379 70.88c-.25-.38-.234-.88.043-1.243l4.26-5.593-5.268-5.65a1.077 1.077 0 0 1 .004-1.471l6.338-6.726-4.257-5.588a1.078 1.078 0 0 1 0-1.304l3.896-5.124h-6.49c-1.66 9.674-6.34 16.04-14.818 20.501a1.077 1.077 0 0 1-1.004-1.906c8.4-4.419 12.703-10.631 13.97-20.632.173-2.676.306-6.883-.222-10.222-.803-5.072-2.808-10.763-11.145-9.818a.538.538 0 0 0-.477.535v13.315c-1.913 4.95-4.817 7.755-9.268 11.588-4.592 12.37-4.002 25.347 1.282 34.523h26.562L63.38 70.88z"/>
    </g>
</svg>
