<svg xmlns="http://www.w3.org/2000/svg" width="100" height="100" viewBox="0 0 100 100">
    <g fill="#009CA6" fill-rule="evenodd">
        <path d="M75.78 29.347C70.35 22.03 62.185 18 52.787 18c-9.4 0-17.566 4.03-22.995 11.348-5.581 7.52-7.7 17.989-5.282 26.077v8.86c-4.916-8.755-6.902-16.841-4.528-29.02l1.78.025 1.127-5.292a1.839 1.839 0 0 0-3.593-.783l-1.124 5.034c-.023.056-.056.104-.07.164-.05.247-.082.48-.13.726l-.021.1h.005c-2.797 14.808.77 24.129 7.875 35.075a.953.953 0 0 0 .229.24l6.674 10.619a.49.49 0 0 0 .193.179c3.138 1.626 6.876 1.726 10.103.322-5.74-9.43-9.77-17.983-12.248-26.002l-3.066-7.482c-.495-1.907 1.165-6.756 5.212-11.988 2.667-3.445 9.94-11.46 19.859-11.46 9.918 0 17.19 8.015 19.858 11.46 4.048 5.232 5.707 10.08 5.235 11.923l-3.087 7.547c-2.48 8.018-6.51 16.573-12.25 26.003 1.493.65 3.09.989 4.69.989 1.864 0 3.728-.438 5.414-1.312a.496.496 0 0 0 .193-.18l8.148-12.962a.49.49 0 0 0 .077-.265v-12.52c2.417-8.09.298-18.557-5.283-26.078"/>
        <path d="M72.898 55.025l-1.591-.675a3.064 3.064 0 0 0-3.933 1.448l-9.985 19.97a3.04 3.04 0 0 0-.16 2.358c.268.781.823 1.41 1.566 1.768l1.924.93c5.728-9.386 9.736-17.87 12.179-25.799M44.853 80.823l1.923-.929a3.038 3.038 0 0 0 1.566-1.769 3.038 3.038 0 0 0-.159-2.357L38.198 55.8a3.065 3.065 0 0 0-3.934-1.449l-1.591.675c2.445 7.928 6.451 16.413 12.18 25.798"/>
    </g>
</svg>
