<svg xmlns="http://www.w3.org/2000/svg" width="100" height="100" viewBox="0 0 100 100">
    <g fill="#009CA6" fill-rule="evenodd">
        <path d="M38.782 72.244c1.569-.608 3.619-1.724 5.058-3.69a.5.5 0 0 0-.674-.716c-.102.065-2.497 1.558-4.82-.336-2.02-1.648-4.354-2.105-6.534-1.349 1.608-1.74 5.256-4.097 12.652-2.472 8.32 1.83 11.389 1.448 13.292.695-2.585 2.966-9.008 8.797-18.974 7.868zm-.315-29.883c-1.815.646-3.661 1.303-5.501 1.987C26.2 46.86 21.47 51.41 19.643 57.16c-1.578 4.967-.752 10.18 2.326 14.68 3.19 4.664 8.118 7.578 13.87 8.203.74.081 1.534.127 2.38.127 5.997 0 14.655-2.352 25.587-11.439l-25.34-26.37zM28.505 31.994a16.428 16.428 0 0 0-2.482 3.107c-2.15 3.511-2.514 7.31-1.027 10.698a.5.5 0 0 0 .955-.144c.006-.048.618-4.22 8.098-7.89l-5.544-5.77zM82.165 82.307L66.698 66.21c.386-.351.767-.683 1.158-1.051 7.162-6.728 10.913-14.073 11.15-21.832.36-11.75-7.647-20.392-7.728-20.478a.5.5 0 0 0-.784.614c1.715 2.654 1.61 8.389-.238 13.058-1.774 4.48-4.83 7.464-8.604 8.4-5.002 1.24-7.904 2.678-9.565 3.826.944-1.138 2.612-2.838 5.557-5.33 8.34-7.053 2.646-14.821 2.587-14.898a.499.499 0 1 0-.899.295c-.06 5.417-7.528 8.715-16.913 12.13l-4.574-4.761c.089-.031.174-.065.264-.096 12.832-4.451 13.17-13.72 13.166-14.762a.5.5 0 0 0-.942-.231c-.03.055-2.947 5.44-11.18 5.922-2.614.152-5.28 1.093-7.633 2.586L19.705 17.307a1 1 0 0 0-1.414-.027.983.983 0 0 0-.268.92.98.98 0 0 0 .24.494L79.866 82.8l.859.893a.999.999 0 1 0 1.441-1.387"/>
    </g>
</svg>
