<svg xmlns="http://www.w3.org/2000/svg" width="100" height="100" viewBox="0 0 100 100">
    <g fill="#009CA6" fill-rule="evenodd">
        <path d="M50.5 70.31c-16.467 0-33.5-4.425-33.5-11.832 0 7.308 9.64 24.833 33.5 24.833S84 65.786 84 58.478c0 7.407-17.033 11.833-33.5 11.833"/>
        <path d="M50.5 68.31c14.899 0 31.5-4.037 31.5-9.832 0-3.85-7.325-6.921-16.608-8.551-2.178 6.132-8.022 10.545-14.903 10.55-6.871 0-12.718-4.412-14.9-10.547C26.314 51.562 19 54.632 19 58.478c0 5.795 16.601 9.833 31.5 9.833"/>
        <path d="M41.425 44.66a1 1 0 0 1 2-.002c.003 3.893 3.172 7.06 7.065 7.06h.006a1 1 0 0 1 0 2h-.006a9.007 9.007 0 0 1-6.405-2.652 9.003 9.003 0 0 1-2.66-6.407m9.064 13.818h.012c7.635-.005 13.82-6.2 13.815-13.837C64.308 33.392 50.469 17 50.469 17S36.655 33.414 36.664 44.662c.006 7.633 6.195 13.815 13.825 13.815"/>
    </g>
</svg>
