<svg xmlns="http://www.w3.org/2000/svg" width="534" height="153" viewBox="0 0 534 153">
    <g fill="#E2821C" fill-rule="evenodd">
        <path d="M233.19 45.317h-24.96v2.61c.676.09 1.523.235 2.54.437 1.015.2 1.862.456 2.54.769.88.4 1.466.876 1.761 1.423.292.546.44 1.22.44 2.025v9.638c-.858.782-2.06 1.469-3.607 2.059-1.547.592-3.314.888-5.3.888-4.246 0-7.525-1.976-9.839-5.93-2.316-3.951-3.472-9.422-3.472-16.413 0-6.588 1.18-11.756 3.54-15.508 2.358-3.752 5.706-5.628 10.042-5.628 3.656 0 6.683 1.264 9.076 3.79 2.393 2.528 4.447 6.397 6.164 11.607h2.98l-.304-17.34h-2.948l-2.099 1.843c-1.512-.76-3.43-1.472-5.757-2.142-2.327-.67-4.856-1.004-7.588-1.004-4.018 0-7.682.615-10.989 1.843-3.307 1.226-6.113 2.968-8.416 5.223-2.349 2.278-4.144 4.99-5.386 8.138-1.242 3.149-1.862 6.577-1.862 10.283 0 3.975.661 7.503 1.982 10.585 1.32 3.08 3.131 5.66 5.435 7.736 2.303 2.1 4.978 3.673 8.027 4.722 3.047 1.05 6.311 1.574 9.788 1.574 3.702 0 7.761-.591 12.175-1.773 4.414-1.183 7.75-2.444 10.008-3.783a208.7 208.7 0 0 1-.1-2.527 83.165 83.165 0 0 1-.036-2.695v-5.521c0-.738.147-1.44.441-2.11.292-.67.902-1.148 1.83-1.438.811-.268 1.49-.446 2.031-.536a29.563 29.563 0 0 1 1.863-.235v-2.61zM278.82 20.18c-3.15-1.16-6.52-1.74-10.108-1.74-3.614 0-7.017.597-10.214 1.79-3.194 1.195-5.954 2.895-8.28 5.104-2.347 2.255-4.194 4.96-5.536 8.119-1.343 3.156-2.015 6.677-2.015 10.559 0 3.727.689 7.106 2.065 10.14 1.377 3.036 3.24 5.614 5.589 7.732 2.37 2.166 5.114 3.817 8.23 4.954 3.115 1.138 6.423 1.707 9.923 1.707 4.334 0 8.072-.652 11.21-1.957 3.137-1.306 5.87-3.13 8.197-5.473 2.213-2.254 3.906-4.942 5.08-8.066 1.173-3.124 1.76-6.415 1.76-9.874 0-3.883-.694-7.341-2.084-10.376-1.385-3.034-3.265-5.623-5.637-7.765-2.303-2.077-5.03-3.692-8.18-4.853m-4.353 43.443c-1.601 1.116-3.52 1.675-5.755 1.675-2.281 0-4.202-.553-5.758-1.66-1.558-1.106-2.846-2.652-3.862-4.642-.993-1.967-1.722-4.27-2.184-6.905-.464-2.638-.695-5.443-.695-8.415 0-6.994 1.061-12.41 3.184-16.242 2.123-3.831 5.226-5.748 9.315-5.748 2.392 0 4.39.614 5.995 1.844 1.603 1.23 2.887 2.86 3.86 4.894.947 2.034 1.618 4.353 2.015 6.955.394 2.604.591 5.28.591 8.029 0 3.24-.224 6.147-.675 8.717-.452 2.57-1.188 4.87-2.202 6.904-.95 1.945-2.224 3.475-3.829 4.594M344.98 52.01c-.723 1.72-1.687 3.61-2.896 5.674-1.208 2.064-2.387 3.665-3.54 4.803-.744.714-1.97 1.177-3.674 1.39a42.821 42.821 0 0 1-5.265.316c-1.853 0-3.302-.06-4.353-.183-1.05-.123-1.868-.396-2.456-.82-.587-.402-.981-1.027-1.184-1.873-.205-.848-.306-2.01-.306-3.483V26.607c0-.781.148-1.48.44-2.092.294-.615.88-1.065 1.76-1.356.724-.223 1.577-.396 2.559-.52a83.13 83.13 0 0 1 2.558-.282v-2.612h-26.384v2.612c.586.088 1.37.228 2.352.417.984.19 1.825.442 2.525.753.947.424 1.547.9 1.795 1.423.249.525.372 1.188.372 1.992v33.504c0 .87-.158 1.584-.473 2.142-.316.557-.882.992-1.694 1.306-.34.132-1.04.273-2.1.417a53.514 53.514 0 0 1-2.777.318v2.61h44.264l.95-15.228h-2.473zM392.387 20.782c-3.115-.69-6.04-1.037-8.772-1.037h-25.57v2.61c.519.047 1.258.135 2.219.268.958.135 1.867.39 2.726.77.858.38 1.434.876 1.728 1.49.292.613.44 1.3.44 2.06v33.67c0 .803-.16 1.488-.475 2.058-.317.57-.881 1.021-1.693 1.355-.361.156-1.083.291-2.168.402a38.007 38.007 0 0 1-2.708.2v2.612h24.214c3.77 0 7.379-.463 10.822-1.389 3.442-.926 6.519-2.339 9.228-4.234 2.665-1.897 4.805-4.335 6.418-7.314 1.615-2.979 2.422-6.476 2.422-10.493 0-4.574-.903-8.439-2.71-11.598-1.807-3.158-4.178-5.684-7.111-7.58-2.891-1.874-5.894-3.158-9.01-3.85m-2.337 42.006c-1.828.938-4.02 1.405-6.568 1.405-1.221 0-2.208-.128-2.965-.384-.757-.256-1.394-.62-1.914-1.088a3.88 3.88 0 0 1-1.1-1.624c-.216-.612-.322-1.323-.322-2.125V22.924c.497-.022 1.247-.05 2.252-.083a77.976 77.976 0 0 1 2.69-.052c2.486 0 4.704.503 6.657 1.508 1.953 1.004 3.585 2.422 4.895 4.251 1.309 1.828 2.303 4.038 2.98 6.627.677 2.59 1.016 5.455 1.016 8.603 0 3.211-.255 6.051-.763 8.518-.507 2.465-1.315 4.59-2.42 6.376-1.13 1.807-2.61 3.178-4.438 4.116M462.727 19.745h-42.605v2.61c.542.068 1.342.214 2.405.436 1.059.224 1.885.468 2.47.736.95.423 1.548.9 1.796 1.423.248.525.372 1.19.372 1.992v33.502c0 .85-.145 1.546-.44 2.093-.293.547-.868 1-1.727 1.356-.452.177-1.22.334-2.302.468a50.095 50.095 0 0 1-2.574.267v2.612H465.2l.916-14.794h-2.474c-.43 1.116-1.321 2.795-2.675 5.036-1.355 2.243-2.574 3.912-3.658 5.004-.406.425-1.021.75-1.845.972-.825.223-1.712.391-2.66.501-.836.111-1.806.18-2.912.201-1.106.023-2.056.033-2.846.033-1.692 0-3.031-.067-4.012-.2-.983-.134-1.757-.414-2.321-.837-.588-.446-.988-1.088-1.202-1.924-.216-.838-.321-1.969-.321-3.398V44.145h4.943c1.333 0 2.507.151 3.524.452 1.016.3 1.896.853 2.64 1.657.497.535 1.023 1.511 1.576 2.928.553 1.418.898 2.594 1.033 3.532h2.574V32.9h-2.574c-.158.958-.503 2.086-1.033 3.38-.532 1.294-1.056 2.197-1.576 2.711-.834.825-1.76 1.383-2.775 1.672-1.017.292-2.146.436-3.39.436h-4.942V22.791h6.976c.79 0 1.79.016 2.998.05 1.207.033 2.15.128 2.829.285 1.579.332 3.17 1.422 4.773 3.267 1.605 1.844 2.733 3.667 3.389 5.47h2.572V19.744zM533.674 19.745h-20.626v2.61c.79.135 1.829.386 3.117.754 1.285.367 2.257.808 2.912 1.321.835.67 1.444 1.7 1.829 3.095.384 1.394.576 3.517.576 6.372v17.967l-26.276-32.119h-18.092v2.678c1.31.245 2.478.585 3.505 1.021a8.944 8.944 0 0 1 2.727 1.79 6.5 6.5 0 0 1 1.642 2.561 9.44 9.44 0 0 1 .525 3.163V53.45c0 3.08-.164 5.272-.491 6.576-.327 1.306-.931 2.283-1.811 2.93-.769.535-1.724.931-2.863 1.187-1.14.257-2.151.42-3.03.485v2.612h20.658v-2.612c-.788-.133-1.85-.39-3.183-.769-1.333-.38-2.303-.815-2.912-1.305-.836-.67-1.439-1.725-1.811-3.162-.374-1.44-.56-3.543-.56-6.31V30.79l29.939 36.718h6.03v-33.94c0-2.833.174-4.982.524-6.443.35-1.462.942-2.493 1.778-3.096a7.155 7.155 0 0 1 3.184-1.305 65.867 65.867 0 0 1 2.709-.369v-2.61zM222.42 127.667c-.723 1.719-1.687 3.609-2.896 5.674-1.208 2.063-2.387 3.665-3.539 4.802-.745.714-1.97 1.177-3.675 1.39-1.705.21-3.46.317-5.266.317-1.852 0-3.303-.061-4.353-.184-1.049-.122-1.868-.395-2.455-.82-.587-.401-.982-1.027-1.186-1.873-.202-.848-.304-2.01-.304-3.483v-31.227c0-.781.147-1.48.441-2.092.293-.614.88-1.065 1.76-1.356.723-.222 1.575-.395 2.557-.518a80.726 80.726 0 0 1 2.557-.283V95.4h-26.383v2.613c.587.088 1.373.227 2.353.418.984.189 1.824.44 2.524.752.948.424 1.546.899 1.795 1.42.25.528.373 1.19.373 1.995v33.504c0 .87-.158 1.584-.475 2.14-.316.558-.88.993-1.693 1.307-.339.132-1.039.273-2.1.417a53.242 53.242 0 0 1-2.777.318v2.61h44.265l.95-15.228h-2.473zM276.773 95.401h-42.606v2.61c.542.068 1.342.214 2.403.436 1.062.225 1.887.47 2.474.736.948.423 1.546.9 1.795 1.422.247.526.372 1.19.372 1.993v33.503c0 .85-.147 1.546-.44 2.092-.293.547-.87 1-1.727 1.357-.453.177-1.22.333-2.304.467a51.338 51.338 0 0 1-2.573.268v2.611h45.078l.916-14.794h-2.474c-.43 1.116-1.321 2.795-2.675 5.036-1.355 2.243-2.574 3.912-3.658 5.004-.406.425-1.021.75-1.845.973-.825.223-1.711.39-2.66.501a26.37 26.37 0 0 1-2.912.2c-1.106.023-2.056.033-2.846.033-1.693 0-3.03-.067-4.012-.2-.983-.134-1.757-.413-2.321-.836-.587-.446-.988-1.089-1.201-1.925-.216-.838-.322-1.969-.322-3.397v-13.69h4.943c1.333 0 2.507.151 3.524.452 1.016.3 1.896.853 2.64 1.658.498.534 1.023 1.511 1.577 2.927.553 1.42.896 2.594 1.032 3.532h2.574v-19.814h-2.574c-.158.96-.503 2.086-1.032 3.38-.533 1.294-1.057 2.198-1.577 2.711-.834.826-1.76 1.384-2.776 1.673-1.016.291-2.145.435-3.388.435h-4.943V98.447h6.976c.79 0 1.79.016 2.998.05 1.207.033 2.15.128 2.829.285 1.578.333 3.17 1.422 4.773 3.267 1.605 1.844 2.733 3.667 3.389 5.47h2.573V95.4zM349.105 95.401H328.48v2.61c.79.135 1.829.386 3.116.754 1.285.367 2.257.81 2.912 1.322.835.67 1.445 1.7 1.829 3.094.384 1.394.577 3.518.577 6.372v17.967l-26.277-32.119h-18.091v2.678c1.309.246 2.478.586 3.504 1.021a8.928 8.928 0 0 1 2.727 1.79 6.494 6.494 0 0 1 1.642 2.562c.35.991.525 2.047.525 3.162v22.492c0 3.08-.164 5.273-.491 6.576-.327 1.307-.931 2.283-1.811 2.93-.768.536-1.724.932-2.862 1.187-1.14.257-2.152.42-3.031.486v2.611h20.659v-2.61c-.79-.135-1.851-.392-3.184-.77-1.333-.38-2.303-.815-2.912-1.306-.836-.67-1.44-1.724-1.811-3.162-.374-1.44-.56-3.543-.56-6.31v-22.29l29.939 36.716h6.03v-33.94c0-2.833.174-4.98.524-6.443.35-1.46.942-2.492 1.779-3.096a7.15 7.15 0 0 1 3.183-1.304 66.47 66.47 0 0 1 2.709-.37v-2.61zM390.28 143.062c2.37-.76 4.459-1.843 6.266-3.25 1.647-1.275 2.957-2.873 3.927-4.795.971-1.92 1.457-3.909 1.457-5.964 0-3.263-.853-5.994-2.557-8.195-1.704-2.2-4.195-3.928-7.467-5.179a95.65 95.65 0 0 0-4.64-1.607 455.883 455.883 0 0 1-5.115-1.677c-2.846-.915-4.939-1.977-6.284-3.184-1.341-1.209-2.014-2.76-2.014-4.66 0-2.012.774-3.7 2.32-5.062 1.546-1.365 3.54-2.046 5.978-2.046 1.941 0 3.635.387 5.08 1.157a13.15 13.15 0 0 1 3.827 3.105c1.016 1.208 1.983 2.722 2.896 4.544a61.96 61.96 0 0 1 2.387 5.351h2.913l-.272-16.199h-2.944l-2.067 2.01c-1.334-.739-3.163-1.475-5.486-2.21-2.326-.738-4.822-1.106-7.487-1.106-2.731 0-5.26.404-7.584 1.207-2.327.805-4.234 1.843-5.724 3.116-1.558 1.364-2.745 2.9-3.556 4.608a12.308 12.308 0 0 0-1.22 5.347c0 2.926.784 5.573 2.355 7.942 1.568 2.368 3.967 4.188 7.197 5.462a90.813 90.813 0 0 0 4.486 1.582c1.594.515 3.337 1.075 5.233 1.68 2.913.92 5.063 2.007 6.452 3.27 1.39 1.261 2.082 2.818 2.082 4.672 0 2.257-.818 4.127-2.454 5.612-1.638 1.486-3.993 2.228-7.061 2.228-2.281 0-4.276-.47-5.978-1.41a18.097 18.097 0 0 1-4.623-3.655 25.06 25.06 0 0 1-3.523-4.866c-1.017-1.81-1.852-3.532-2.506-5.165h-2.913l.44 17.171h2.878l2.337-2.343c1.762.983 3.913 1.835 6.452 2.561 2.54.725 5.279 1.087 8.213 1.087 3.161 0 5.928-.38 8.298-1.139M76.516 0C48.838 0 24.597 14.646 11.16 36.584c11.112-5.736 22.876-9.5 35.452-10.23 20.271-1.182 39 3.828 55.968 14.891 14.086 9.183 25.863 20.842 35.391 34.746 1.032 1.508 1.023 2.584.03 4.107-8.587 13.14-18.68 24.834-32.096 33.268-12.133 7.63-25.367 11.7-39.787 11.068-11.917-.524-22.087-4.916-29.226-14.852-7.11-9.897-5.802-24.454 2.655-32.124 7.671-6.958 19.58-7.875 27.3-2.103 4.903 3.667 7.174 9.931 5.592 15.406H59.5c-.205-3.09-1.398-4.723-3.959-5.423-2.757-.753-5.236-.006-6.759 2.408-.836 1.327-1.502 2.922-1.695 4.465-.805 6.403 2.222 10.931 7.555 14.033 12.805 7.448 28.213-.228 30.063-14.913 1.892-15.024-7.735-27.81-23.254-30.882-20.79-4.114-41.77 8.303-48.367 29.208-2.875 9.11-3.519 17.66-2.387 25.482 13.336 22.373 37.814 37.374 65.82 37.374 42.26 0 76.517-34.14 76.517-76.257C153.033 34.141 118.775 0 76.516 0"/>
        <path d="M93.974 104.905l.46.538c4.246-3.368 8.82-6.406 12.656-10.191 4.951-4.89 9.321-10.372 13.917-15.619.687-.787 1.18-1.555.21-2.671-9.238-10.597-19.147-20.408-31.588-27.28-18.168-10.033-37.198-12.083-57.174-6.359C20.793 46.666 10.763 52.37 1.83 59.696A76.206 76.206 0 0 0 0 76.256c0 1.983.1 3.942.248 5.884a52.26 52.26 0 0 1 2.84-5.741C14.383 56.805 31.271 45.407 54.36 45.624c16.366.153 30.27 6.642 39.183 20.921 7.676 12.298 8.253 25.203.503 37.964-.067.106-.05.263-.073.396"/>
    </g>
</svg>
