<svg xmlns="http://www.w3.org/2000/svg" width="130" height="130" viewBox="0 0 130 130">
    <g fill="none" fill-rule="evenodd">
        <path fill="#FFF" fill-opacity=".8" d="M65 130c35.899 0 65-29.101 65-65S100.899 0 65 0 0 29.101 0 65s29.101 65 65 65"/>
        <path fill="#009CA6" d="M19.14 79.62V70.9h2.006l2.694 3.674 2.541-3.674h1.884v8.719h-1.997v-5.556l-2.428 3.403h-.286l-2.42-3.366v5.519zM39.301 72.769V70.9h7.23v1.868h-2.618v6.85H41.92v-6.85zM56.757 79.62h-1.743V70.9h1.994v5.419l3.864-5.419h1.746v8.719h-1.994v-5.418zM73.162 79.62v-3.513h-3.18v3.513h-1.995V70.9h1.996v3.337h3.179v-3.337h1.997v8.719zM80.612 73.453l-.986 2.466h1.957l-.97-2.466zm-4.464 6.167l3.628-8.719h1.784l3.623 8.72h-2.129l-.722-1.832h-3.453l-.724 1.831h-2.007zM88.799 79.62V70.9h2.01l2.693 3.674 2.542-3.674h1.883v8.719H95.93v-5.556l-2.429 3.403h-.289L90.797 74.1v5.519zM101.526 79.62h-1.748V70.9h1.995v5.419l3.864-5.419h1.746v8.719h-1.992v-5.418zM44.985 87.002l-.277 1.253h3.991l.28-1.253zM103.18 40.453V58.62h11.73v-1.592h-9.403v-7.345h7.873v-1.417h-7.873v-6.358h8.851v-1.454zM80.205 40.451l-6.099 15.442-6.25-15.442H65.2l7.547 18.253h1.768l7.458-18.253zM39.247 57.499c1.68.012 3.885-.297 5.148-1.632l.04.042v2.293c-1.541.444-3.675.853-5.3.85-5.15-.022-10.137-3.003-10.137-9.437 0-4.836 3.826-9.588 10.258-9.588 1.434 0 3.495.402 4.68.842v1.867l-.048.04c-1.199-1.057-3.252-1.442-4.99-1.442-4.097 0-7.359 3.113-7.359 8.01 0 5.835 3.556 8.12 7.708 8.155M60.838 40.451V52.01c0 3.375-1.653 5.654-5.486 5.654-4.072 0-4.926-2.85-4.926-5.503v-11.71H48.02v11.835c0 4.009 2.794 6.762 7.34 6.762 4.55 0 7.15-3.136 7.15-7.09V40.451h-1.672zM25.883 58.622H28.6L20.33 40.32h-2.817v.14c.844.55.905 1.313.396 2.594l-6.91 15.568h1.91l2.306-5.483h8.33l2.34 5.483zM15.81 51.728l3.537-8.413 3.592 8.413h-7.129zM97.37 40.451V52.01c0 3.375-1.653 5.654-5.485 5.654-4.071 0-4.926-2.85-4.926-5.503v-11.71h-2.404v11.835c0 4.009 2.793 6.762 7.34 6.762 4.55 0 7.15-3.136 7.15-7.09V40.451H97.37zM119.678 41.27c0-.989-.744-1.78-1.792-1.78-1.037 0-1.771.789-1.771 1.777 0 .988.745 1.786 1.792 1.786 1.042 0 1.77-.794 1.77-1.783zm-.208 0c0 .885-.629 1.59-1.566 1.59-.942 0-1.579-.711-1.579-1.593 0-.877.614-1.588 1.558-1.588.945 0 1.587.714 1.587 1.591zm-1.261.127a.54.54 0 0 0 .436-.526c0-.32-.198-.541-.593-.541h-.835v1.837h.27v-.742h.446l.447.742h.292l-.463-.77zm.152-.52c0 .185-.1.303-.309.303h-.565v-.602h.568c.202 0 .306.118.306.3zM18.025 78.76c-.259.3-.66.547-1.184.735a4.873 4.873 0 0 1-1.656.275c-1.36 0-2.456-.411-3.304-1.233-.849-.836-1.271-1.92-1.271-3.276 0-1.31.397-2.392 1.199-3.24.796-.849 1.918-1.27 3.362-1.27 1.11 0 2.12.373 2.669.91l-.884 1.493c-.588-.36-1.185-.535-1.785-.535-.708 0-1.294.237-1.757.697-.462.462-.685 1.11-.685 1.945 0 .77.251 1.406.733 1.907.487.486 1.122.734 1.91.734.697 0 1.333-.212 1.894-.637l.76 1.495zM32.412 77.143c.487.51 1.086.759 1.782.759.799 0 1.424-.249 1.86-.734.438-.5.658-1.136.658-1.907 0-.785-.234-1.421-.719-1.907a2.457 2.457 0 0 0-1.8-.735c-.734 0-1.33.25-1.807.735-.472.486-.709 1.122-.709 1.907 0 .748.25 1.37.735 1.882m-1.572-5.097c.861-.86 1.985-1.296 3.354-1.296 1.362 0 2.469.413 3.33 1.234.874.822 1.312 1.92 1.312 3.277 0 1.306-.438 2.392-1.324 3.238-.871.847-1.983 1.271-3.318 1.271-1.356 0-2.467-.411-3.337-1.233-.861-.823-1.3-1.92-1.3-3.276 0-1.283.424-2.355 1.283-3.215M49.578 72.769v1.992c.312.038.623.063.909.063.637 0 1.171-.312 1.171-1.07 0-.674-.398-1.01-1.207-1.01-.038 0-.325.012-.873.025zm0 6.85h-1.994v-8.718c.15 0 .574 0 1.259-.014.699-.012 1.172-.012 1.41-.012 1.233 0 2.13.273 2.69.823.563.535.837 1.231.837 2.067 0 .81-.3 1.508-.886 2.082-.587.56-1.372.847-2.343.847-.438 0-.761-.015-.973-.039v2.965zM111.225 72.769v1.992c.314.038.624.063.91.063.636 0 1.173-.312 1.173-1.07 0-.674-.4-1.01-1.21-1.01-.037 0-.325.012-.873.025zm0 6.85h-1.995v-8.718c.15 0 .57 0 1.26-.014.696-.012 1.17-.012 1.41-.012 1.23 0 2.13.273 2.69.823.561.535.836 1.231.836 2.067 0 .81-.3 1.508-.884 2.08-.586.562-1.373.849-2.344.849-.436 0-.76-.015-.973-.039v2.965zM33.77 87.586c.066-.287.124-.54.174-.766.052-.221.077-.452.077-.694a.803.803 0 0 0-.102-.411c-.071-.115-.192-.174-.366-.174-.173 0-.355.068-.542.202a3.47 3.47 0 0 0-.55.5 4.94 4.94 0 0 0-.497.662 5.746 5.746 0 0 0-.364.668l-.836 3.978h-1.92l1.197-5.967-.82-.182.027-.472c.13-.066.298-.127.502-.187.204-.061.426-.113.667-.16.24-.046.49-.084.746-.111.255-.027.495-.041.728-.041l.282.168-.433 2.03h.068a5.57 5.57 0 0 1 .585-.864c.225-.269.458-.5.71-.695.247-.195.514-.35.794-.465.276-.118.559-.174.847-.174.39 0 .694.124.919.374.225.248.334.581.334.996 0 .213-.024.455-.07.726-.047.272-.103.544-.167.811l-.766 3.225h1.003v.483a1.97 1.97 0 0 1-.373.228 3.296 3.296 0 0 1-.506.2 5.482 5.482 0 0 1-.569.144 3.08 3.08 0 0 1-.562.055c-.322 0-.549-.06-.695-.18-.146-.119-.22-.26-.22-.416 0-.194.026-.405.073-.625.045-.224.09-.436.14-.64l.485-2.226zM40.754 85.222c-.374 0-.682.138-.925.418a3.098 3.098 0 0 0-.599 1.05 6.568 6.568 0 0 0-.33 1.37c-.064.491-.096.945-.096 1.362 0 .473.088.842.272 1.105.18.265.429.397.743.397.269 0 .518-.114.746-.34.227-.227.423-.535.59-.918a6.14 6.14 0 0 0 .39-1.323c.094-.496.14-1.01.14-1.55 0-.507-.081-.899-.244-1.166-.163-.27-.394-.405-.687-.405m-3.924 3.656c0-.499.082-1.01.247-1.533a4.45 4.45 0 0 1 .768-1.435 4.052 4.052 0 0 1 1.3-1.06c.525-.28 1.137-.42 1.843-.42.835 0 1.49.228 1.963.683.473.453.71 1.128.71 2.03 0 .61-.093 1.192-.279 1.744a4.493 4.493 0 0 1-.806 1.46 3.818 3.818 0 0 1-1.289 1c-.505.247-1.084.37-1.73.37-.39 0-.753-.059-1.087-.173a2.357 2.357 0 0 1-.87-.53 2.369 2.369 0 0 1-.57-.883c-.134-.351-.2-.768-.2-1.253M56.974 84.599l-1.198 5.964h.988v.485c-.094.075-.22.15-.383.226-.161.077-.34.145-.534.2-.197.057-.4.106-.607.144-.208.037-.41.056-.604.056-.306 0-.524-.064-.648-.194-.126-.13-.19-.265-.19-.4 0-.179.034-.39.093-.636.06-.245.113-.476.162-.688l.263-1.32h-2.2l-.655 3.114h-1.919l1.183-5.966-.806-.182v-.472a2.83 2.83 0 0 1 .529-.186c.22-.062.46-.114.723-.161.259-.046.516-.083.771-.111a6.52 6.52 0 0 1 .675-.041l.279.168-.627 3.044h2.198l.585-3.044h1.922zM61.506 85.222c-.369 0-.68.138-.923.418-.249.276-.447.628-.599 1.05a6.395 6.395 0 0 0-.328 1.37c-.065.491-.096.945-.096 1.362 0 .473.089.842.27 1.105a.856.856 0 0 0 .747.397c.268 0 .514-.114.742-.34.229-.227.424-.535.593-.918.162-.385.294-.826.388-1.323.092-.496.139-1.01.139-1.55 0-.507-.082-.899-.243-1.166-.162-.27-.395-.405-.69-.405m-3.923 3.656c0-.499.084-1.01.25-1.533a4.452 4.452 0 0 1 .767-1.435 4.074 4.074 0 0 1 1.3-1.06c.523-.28 1.138-.42 1.843-.42.835 0 1.489.228 1.96.683.476.453.714 1.128.714 2.03 0 .61-.094 1.192-.28 1.744a4.447 4.447 0 0 1-.807 1.46 3.815 3.815 0 0 1-1.287 1c-.505.247-1.083.37-1.733.37-.39 0-.75-.059-1.087-.173a2.38 2.38 0 0 1-.87-.53 2.45 2.45 0 0 1-.57-.883c-.132-.351-.2-.768-.2-1.253M69.105 85.222c-.359 0-.705.186-1.043.557-.337.37-.625.997-.858 1.877.347.02.669-.021.963-.117.296-.099.547-.229.755-.397.207-.167.365-.36.485-.58.117-.214.176-.445.176-.688a.99.99 0 0 0-.106-.451c-.07-.133-.196-.201-.372-.201m.132 4.09c0-.382-.082-.645-.24-.794-.164-.147-.41-.254-.749-.32-.149.028-.332.052-.542.068a10.09 10.09 0 0 1-.584.043c-.02.102-.038.251-.064.44a6.216 6.216 0 0 0-.034.742c0 .41.078.749.239 1.024.16.272.405.409.731.409.14 0 .286-.04.431-.118.145-.078.277-.189.394-.336.117-.14.216-.313.297-.505.078-.194.12-.413.12-.652m2.282-3.478c0 .406-.176.775-.529 1.097-.351.325-.819.582-1.392.768.313.017.578.07.785.157.209.088.379.2.51.336.13.133.222.277.278.431.054.152.083.301.083.449 0 .307-.083.615-.242.926a2.79 2.79 0 0 1-.71.847 3.81 3.81 0 0 1-1.134.626 4.447 4.447 0 0 1-1.52.244c-.415 0-.784-.058-1.104-.179a2.325 2.325 0 0 1-.814-.508 2.12 2.12 0 0 1-.507-.78 2.727 2.727 0 0 1-.174-.995c0-.453.045-.883.135-1.285.095-.405.22-.774.377-1.11.159-.34.342-.645.552-.913.208-.269.432-.495.674-.683a3.552 3.552 0 0 1 1.175-.624c.441-.14.996-.208 1.664-.208.528 0 .975.115 1.343.348.367.23.55.581.55 1.056M76.06 85.222c-.37 0-.679.138-.924.418a3.16 3.16 0 0 0-.597 1.05 6.56 6.56 0 0 0-.327 1.37c-.065.491-.096.945-.096 1.362 0 .473.088.842.27 1.105a.85.85 0 0 0 .743.397c.27 0 .517-.114.744-.34.228-.227.425-.535.593-.918.166-.385.294-.826.39-1.323.091-.496.139-1.01.139-1.55 0-.507-.081-.899-.244-1.166-.164-.27-.393-.405-.69-.405m-3.922 3.656c0-.499.084-1.01.25-1.533a4.478 4.478 0 0 1 .765-1.435 4.062 4.062 0 0 1 1.3-1.06c.525-.28 1.138-.42 1.844-.42.836 0 1.49.228 1.961.683.474.453.71 1.128.71 2.03a5.42 5.42 0 0 1-.277 1.744 4.461 4.461 0 0 1-.806 1.46 3.848 3.848 0 0 1-1.287 1c-.506.247-1.084.37-1.735.37-.387 0-.748-.059-1.084-.173a2.383 2.383 0 0 1-.87-.53 2.428 2.428 0 0 1-.572-.883c-.133-.351-.2-.768-.2-1.253M82.753 85.96c-.104.417-.21.86-.32 1.328a19.89 19.89 0 0 1-.388 1.39c-.152.458-.32.895-.51 1.307-.19.412-.41.768-.662 1.065a1.773 1.773 0 0 1-.84.564c-.34.106-.657.14-.953.102-.087-.102-.143-.254-.176-.46a2.184 2.184 0 0 1-.005-.622 1.74 1.74 0 0 1 .106-.426c.048-.134.121-.255.213-.354l1.126.331c.167-.21.328-.49.483-.831.15-.343.295-.725.43-1.143.133-.416.259-.853.374-1.311.118-.462.222-.913.313-1.356a4.662 4.662 0 0 1-.492-.211 1.004 1.004 0 0 1-.367-.263V84.6h3.13l.5 3.627.055.986h.042l.557-1.03 2.255-3.583h2.016l-1.18 5.965h1.03v.482a2.017 2.017 0 0 1-.378.229 3.557 3.557 0 0 1-.514.2 4.475 4.475 0 0 1-.6.141c-.213.04-.42.06-.627.06-.285 0-.499-.06-.637-.175-.14-.116-.21-.25-.21-.396 0-.223.029-.475.09-.759.06-.281.115-.528.163-.744l.555-2.377c.019-.082.039-.18.069-.284.026-.108.061-.218.096-.335.038-.116.074-.23.105-.34.03-.111.062-.206.088-.28h-.04l-3.423 5.565h-.876l-.473-4.591-.069-1h-.056zM91.125 85.584l-.893-.111V85c.047-.035.143-.085.281-.148.14-.058.301-.12.493-.186.19-.065.391-.12.604-.166.216-.046.422-.07.626-.07.252 0 .446.062.584.182.141.12.234.288.28.5l1.072 4.212.069.835h.028l.29-.821c.189-.443.37-.925.546-1.439.174-.514.316-.993.415-1.439 0-.101-.013-.244-.048-.422a34.45 34.45 0 0 0-.104-.556 12.626 12.626 0 0 0-.194-.857c.13-.056.29-.097.486-.125.197-.028.389-.043.587-.043.195 0 .375.015.54.043.167.028.303.07.404.125a19.639 19.639 0 0 1-1.109 3.435 31.567 31.567 0 0 1-1.715 3.49c-.538.954-1.074 1.676-1.609 2.167-.533.493-1.148.738-1.842.738a1.763 1.763 0 0 1-.974-.278.99.99 0 0 1 .028-.46 2.425 2.425 0 0 1 .514-.97.918.918 0 0 1 .375-.28l1.046.738c.063-.046.145-.114.247-.203.105-.089.206-.199.31-.334.099-.132.202-.294.307-.479.097-.185.192-.401.274-.639l-1.918-5.966zM11.174 65.122h.626V61.6h-.626v3.522zm1.543-1.84l1.692 1.84h-.87l-1.59-1.8 1.489-1.722h.822l-1.543 1.682zM18.704 61.521c1.128 0 1.88.783 1.88 1.84 0 1.056-.752 1.839-1.88 1.839s-1.88-.783-1.88-1.84c0-1.056.752-1.839 1.88-1.839m0 3.092c.705 0 1.214-.5 1.214-1.253 0-.735-.509-1.251-1.214-1.251-.689 0-1.214.508-1.214 1.251 0 .736.51 1.253 1.214 1.253M26.256 63.635h-1.958v1.486h-.627V61.6h.627v1.448h1.958V61.6h.626v3.522h-.626zM29.776 61.6h3.211v.625h-1.292v2.896h-.627v-2.896h-1.292zM35.887 61.842a2.27 2.27 0 0 1 1.175-.32c1.003 0 1.355.524 1.355 1.44v2.16h-.595v-.454c-.211.266-.548.509-1.128.509-.642 0-1.08-.408-1.08-1.089 0-.72.571-1.118 1.331-1.118.274 0 .642.054.877.226 0-.657-.101-1.111-.799-1.111-.43 0-.689.11-.971.258l-.165-.5zm1.935 2.317v-.446a1.333 1.333 0 0 0-.791-.235c-.376 0-.752.172-.752.58 0 .336.227.555.635.555.462 0 .728-.243.908-.454zM41.67 65.122h.627V61.6h-.626v3.522zm1.543-1.84l1.692 1.84h-.87l-1.589-1.8 1.488-1.722h.822l-1.543 1.682zM47.49 61.6h3.21v.625H49.41v2.896h-.627v-2.896H47.49zM56.175 63.635h-1.959v1.486h-.626V61.6h.626v1.448h1.959V61.6h.626v3.522h-.626zM60.107 61.6h.626v1.056h.58c1.08 0 1.394.587 1.394 1.213 0 .618-.36 1.252-1.465 1.252h-1.135V61.6zm.626 1.643v1.292h.455c.626 0 .854-.228.854-.642 0-.423-.244-.65-.847-.65h-.462zm2.648 1.878h.627V61.6h-.627v3.521zM70.307 64.738c-.346.313-.854.462-1.324.462-1.144 0-1.888-.728-1.888-1.84 0-1.025.658-1.839 1.817-1.839.909 0 1.637.642 1.637 1.613 0 .172-.016.313-.039.422H67.8c.055.665.54 1.057 1.23 1.057.454 0 .853-.157 1.08-.368l.197.493zm-2.546-1.69h2.138c-.031-.58-.407-.94-1.018-.94-.642 0-1.05.4-1.12.94zM87.804 62.226h-1.238l-.039.595c-.157 2.003-.69 2.347-1.418 2.347l-.047-.61c.267.023.768-.235.854-1.862l.063-1.096h2.451v3.521h-.626v-2.895zM91.733 65.122V61.6h.626v2.622l2.037-2.622h.626v3.522h-.626V62.5l-2.037 2.622zM100.913 63.635h-1.958v1.486h-.627V61.6h.627v1.448h1.958V61.6h.626v3.522h-.626zM104.51 64.722l.32-.469c.298.242.737.383 1.043.383.532 0 .924-.227.924-.579 0-.29-.259-.454-.69-.454h-.595v-.508h.556c.353 0 .611-.22.611-.501 0-.321-.298-.51-.752-.51-.485 0-.822.205-1.057.392l-.243-.485c.29-.297.838-.47 1.394-.47.862 0 1.323.368 1.323.948 0 .344-.172.672-.618.83v.015c.494.054.736.422.736.83 0 .657-.626 1.056-1.496 1.056-.517 0-1.222-.196-1.456-.478M110.597 61.6h.627v1.056h.58c1.08 0 1.394.587 1.394 1.213 0 .618-.36 1.252-1.465 1.252h-1.136V61.6zm.627 1.643v1.292h.454c.627 0 .854-.228.854-.642 0-.423-.243-.65-.846-.65h-.462zm2.647 1.878h.627V61.6h-.627v3.521z"/>
    </g>
</svg>
